<?xml version="1.0" encoding="UTF-8"?>
<svg id="Layer_1" data-name="Layer 1" xmlns="http://www.w3.org/2000/svg" viewBox="0 0 500 500">
  <defs>
    <style>
      .cls-1 {
        fill: #fefefe;
      }

      .cls-1, .cls-2 {
        stroke-width: 0px;
      }

      .cls-2 {
        fill: #ff783a;
      }
    </style>
  </defs>
  <path class="cls-2" d="M250.01,388.16c-23.45,13.59-50.7,21.35-79.76,21.35-88.1,0-159.51-71.42-159.51-159.51S82.16,90.49,170.25,90.49c29.05,0,56.3,7.76,79.76,21.35-47.69,27.57-79.76,79.12-79.76,138.16s32.07,110.6,79.76,138.16Z"/>
  <path class="cls-1" d="M489.26,250c0,88.1-71.42,159.51-159.51,159.51-29.05,0-56.29-7.76-79.74-21.35-47.69-27.57-79.76-79.12-79.76-138.16s32.07-110.6,79.76-138.16c23.45-13.59,50.68-21.35,79.74-21.35,88.1,0,159.51,71.42,159.51,159.51Z"/>
</svg>